<?xml version="1.0" encoding="iso-8859-1"?>
<!-- Uploaded to: SVG Repo, www.svgrepo.com, Generator: SVG Repo Mixer Tools -->
<svg height="800px" width="800px" version="1.1" id="Layer_1" xmlns="http://www.w3.org/2000/svg" xmlns:xlink="http://www.w3.org/1999/xlink" 
	 viewBox="0 0 512 512" xml:space="preserve">
<path style="fill:#AFAA8C;" d="M456,312c-2.597,11.244-60,99-211,99c-105,0-95.244-130.209-124.122-130.209v-49.582
	C149.756,231.209,140,101,245,101c141.676,0,212,81,214.597,92.244L456,312z"/>
<g>
	<path style="fill:#968769;" d="M272,102.027c-5.22-0.395-10.559-0.668-16-0.832V410.8c5.448-0.158,10.807-0.396,16-0.777V102.027z"
		/>
	<path style="fill:#968769;" d="M208,107.717c-5.849,2.354-11.18,5.229-16,8.574v279.418c4.82,3.346,10.151,6.22,16,8.574V107.717z"
		/>
	<path style="fill:#968769;" d="M240,101.196c-5.67,0.235-11.006,0.845-16,1.823V408.98c4.994,0.979,10.33,1.588,16,1.823V101.196z"
		/>
	<path style="fill:#968769;" d="M176,130.662c-6.367,7.271-11.592,15.382-16,23.771v203.135c4.408,8.389,9.633,16.499,16,23.771
		V130.662z"/>
	<path style="fill:#968769;" d="M448,325.987c4.904-6.732,7.497-11.808,8-13.987l3.597-118.756
		c-0.571-2.474-4.43-8.329-11.597-15.951V325.987z"/>
	<path style="fill:#968769;" d="M144,318.68V193.32c-5.506,15.794-9.905,28.991-16,34.755v55.851
		C134.095,289.689,138.494,302.886,144,318.68z"/>
	<path style="fill:#968769;" d="M400,140.291c-5.018-2.916-10.341-5.789-16-8.578v247.521c5.698-3.051,11.04-6.197,16-9.402V140.291
		z"/>
	<path style="fill:#968769;" d="M304,106c-5.195-0.904-10.541-1.68-16-2.354v304.785c5.492-0.668,10.813-1.466,16-2.366V106z"/>
	<path style="fill:#968769;" d="M432,162.426c-4.723-3.904-10.056-7.955-16-12.039v208.006c6.057-4.77,11.399-9.506,16-14.042
		V162.426z"/>
	<path style="fill:#968769;" d="M368,124.461c-5.112-2.128-10.455-4.157-16-6.087v275.097c5.585-2.027,10.914-4.182,16-6.434
		V124.461z"/>
	<path style="fill:#968769;" d="M336,113.303c-5.167-1.475-10.505-2.838-16-4.09v293.682c5.542-1.275,10.838-2.71,16-4.223V113.303z
		"/>
</g>
<path style="fill:#A59673;" d="M8,256c0,36,24,56,24,56s19-32,80-32s59,96,160,96c116.939,0,199.658-75.118,226.044-104.876
	c3.252-3.668,2.386-9.348-1.75-11.979C489.275,254.683,480,248.659,480,248c0-17.5,24-24,24-24c-13.002-8.002-104.001-88-232-88
	c-101,0-99,96-160,96s-80-32-80-32S8,220,8,256"/>
<path style="fill:#968769;" d="M504,224c-9.522-5.86-60.922-50.316-138.021-73.701C390.778,163.031,440,196.276,440,259.881v6.722
	c0,39.853-24.752,66.178-48.005,82.18c53.696-24.919,91.035-60.55,106.737-78.44c2.878-3.28,2.124-8.301-1.561-10.639
	C490.076,255.201,480,248.688,480,248C480,230.5,504,224,504,224z"/>
<g>
	<circle style="fill:#464655;" cx="448" cy="216" r="8"/>
	<circle style="fill:#464655;" cx="456" cy="248" r="8"/>
</g>
<path style="fill:#AFAA8C;" d="M88,256c0-8.815,1.372-17.307,3.891-25.289C46.758,224.772,32,200,32,200S8,220,8,256s24,56,24,56
	s14.758-24.772,59.891-30.711C89.372,273.307,88,264.814,88,256z"/>
<g>
	<path style="fill:#968769;" d="M40,256c0-11.952,22.312-19.441,33.605-29.135C42.73,217.844,32,200,32,200S8,220,8,256s24,56,24,56
		s10.73-17.844,41.605-26.865C62.312,275.441,40,267.952,40,256z"/>
	<circle style="fill:#968769;" cx="280" cy="304" r="16"/>
	<circle style="fill:#968769;" cx="308" cy="204" r="12"/>
	<circle style="fill:#968769;" cx="204" cy="236" r="12"/>
</g>
<path d="M422.685,280.108c-0.69,0.12-17.023,2.585-22.992-18.307c-1.214-4.248-5.641-6.712-9.89-5.494
	c-4.249,1.214-6.708,5.642-5.495,9.891c6.854,23.985,24.679,30.063,36.272,30.063c1.737,0,3.336-0.137,4.735-0.369
	c4.358-0.727,7.302-4.849,6.576-9.207S427.046,279.395,422.685,280.108z"/>
<path d="M400,304c-3.968,0-12.99-3.869-16.845-11.578c-1.975-3.949-6.78-5.551-10.733-3.577c-3.952,1.976-5.554,6.782-3.578,10.733
	C375.236,312.361,389.705,320,400,320c4.418,0,8-3.582,8-8S404.418,304,400,304z"/>
<path d="M506.222,256.314c-5.929-1.714-12.701-3.779-17.225-5.274c3.424-8.936,14.738-17.512,19.14-20.192
	c2.388-1.443,3.852-4.025,3.863-6.814c0.011-2.79-1.431-5.385-3.807-6.847c-1.216-0.748-3.925-2.758-7.061-5.084
	c-7.646-5.673-19.563-14.508-35.186-24.356c-5.715-11.262-26.272-32.787-57.337-51.676C376.295,116.422,321.68,93,245,93
	c-32.568,0-58.786,12.051-77.925,35.816c-16.03,19.906-24.564,44.431-31.421,64.137c-3.436,9.874-6.403,18.401-9.555,24.209
	c-1.893,3.488-3.467,5.213-4.493,5.802c-0.435,0.098-0.873,0.191-1.315,0.276c-0.498,0.035-0.981,0.118-1.449,0.241
	C116.661,223.816,114.389,224,112,224c-55.085,0-72.447-26.998-73.121-28.084c-1.196-2.015-3.215-3.404-5.524-3.801
	c-2.307-0.396-4.676,0.239-6.476,1.739C25.781,194.769,0,216.705,0,256s25.781,61.231,26.878,62.146
	c1.8,1.5,4.167,2.138,6.476,1.739c2.309-0.396,4.328-1.786,5.524-3.801C39.045,315.804,56.199,288,112,288
	c2.385,0,4.653,0.184,6.832,0.518c0.474,0.125,0.962,0.208,1.465,0.244c0.44,0.084,0.875,0.177,1.307,0.273
	c1.026,0.588,2.601,2.313,4.496,5.804c3.151,5.808,6.119,14.335,9.555,24.209c6.857,19.705,15.391,44.229,31.421,64.136
	C186.214,406.949,212.432,419,245,419c81.477,0,135.091-25.404,165.72-46.716c33.287-23.161,50.975-49.483,53.068-58.46
	c23.159-18.266,39.36-35.639,46.542-44.933c1.62-2.096,2.097-4.857,1.274-7.376C510.782,258.998,508.767,257.051,506.222,256.314z
	 M96,240v32.746c-35.737,3.43-55.344,17.939-64.44,27.232C25.286,292.315,16,277.363,16,256c0-21.371,9.293-36.326,15.559-43.98
	c9.098,9.296,28.715,23.814,64.479,27.237C96.015,239.502,96,239.749,96,240z M400,152v-2.431
	c6.637,4.021,12.594,8.047,17.896,11.958c-5.796-2.688-11.822-5.316-18.077-7.842C399.936,153.141,400,152.578,400,152z M368,133.15
	c5.725,2.459,11.05,4.982,16,7.51v7.039c-5.201-1.835-10.539-3.582-16-5.229V133.15z M336,121.655
	c5.608,1.648,10.971,3.403,16.085,5.238c-0.05,0.362-0.085,0.729-0.085,1.106v10.045c-5.23-1.313-10.567-2.519-16-3.609V121.655z
	 M304,114.135c5.511,0.988,10.845,2.095,16,3.304v14.185c-5.252-0.791-10.584-1.469-16-2.012V114.135z M272,110.047
	c5.479,0.427,10.817,0.979,16.016,1.64C288.012,111.791,288,111.895,288,112v16.403c-5.266-0.265-10.6-0.403-16-0.403V110.047z
	 M240,109.118c1.637-0.073,3.299-0.118,5-0.118c3.727,0,7.384,0.071,11,0.184v19.644c-5.666,0.604-10.979,1.538-16,2.735V109.118z
	 M208,116.434c4.882-2.23,10.198-4.019,16-5.282V136c0,0.209,0.016,0.414,0.031,0.618c-5.799,2.339-11.109,5.081-16.031,8.105
	V116.434z M192,126.372v30.197c-5.905,5.169-11.167,10.681-16,16.229V144c0-0.127-0.013-0.25-0.019-0.376
	C180.538,137.264,185.807,131.398,192,126.372z M150.766,198.212c2.742-7.88,5.698-16.368,9.234-24.866V192
	c0,0.123,0.013,0.242,0.019,0.363c-4.144,5.158-8.121,9.959-12.184,14.183C148.8,203.86,149.77,201.074,150.766,198.212z M160,320
	v18.656c-3.536-8.498-6.493-16.988-9.234-24.867c-0.996-2.862-1.966-5.649-2.931-8.336c4.062,4.225,8.041,9.025,12.184,14.184
	C160.013,319.758,160,319.877,160,320z M192,385.629c-6.193-5.027-11.462-10.893-16.019-17.252c0.006-0.125,0.019-0.25,0.019-0.377
	v-28.799c4.833,5.549,10.095,11.061,16,16.229V385.629z M224,376v24.849c-5.802-1.263-11.118-3.052-16-5.282v-28.29
	c4.922,3.024,10.232,5.767,16.031,8.105C224.016,375.586,224,375.791,224,376z M256,402.82c-3.611,0.107-7.265,0.18-11,0.18
	c-1.701,0-3.363-0.045-5-0.118v-22.443c5.021,1.196,10.334,2.13,16,2.734V402.82z M272,401.988V384c5.349,0,10.682-0.152,16-0.451
	V400c0,0.125,0.013,0.245,0.019,0.368C282.832,401.02,277.501,401.57,272,401.988z M320,394.619c-5.137,1.223-10.469,2.339-16,3.33
	v-15.76c5.352-0.607,10.685-1.371,16-2.283V394.619z M336,390.307v-13.625c5.355-1.238,10.688-2.635,16-4.186V384
	c0,0.291,0.018,0.578,0.048,0.861C346.962,386.773,341.625,388.604,336,390.307z M368,378.224V368c0-0.223-0.016-0.442-0.033-0.661
	c5.37-1.903,10.715-3.964,16.033-6.19V368c0,0.68,0.094,1.336,0.253,1.965C379.266,372.758,373.856,375.534,368,378.224z
	 M400.681,359.773c-0.222,0.152-0.457,0.307-0.681,0.461v-6.307c7.961-3.859,15.858-8.092,23.686-12.689
	C417.343,347.23,409.707,353.564,400.681,359.773z M272,368c-52.978,0-74.838-27.435-95.978-53.967
	c-14.21-17.834-27.778-34.84-49.233-40.249c-1.401-0.496-2.885-0.823-4.474-0.94C119.06,272.297,115.634,272,112,272v-32
	c3.631,0,7.054-0.297,10.307-0.842c1.595-0.118,3.083-0.445,4.49-0.944c21.45-5.411,35.017-22.415,49.225-40.247
	C197.162,171.435,219.022,144,272,144c78.572,0,142.803,30.819,183.061,55.823c0.202,0.14,0.409,0.269,0.623,0.389
	c15.219,9.488,26.969,18.108,34.704,23.842C482.26,230.917,472,242.296,472,256c0,6.012,5.243,7.875,9.071,9.235
	c2.09,0.743,4.967,1.686,8.552,2.801c0.137,0.043,0.274,0.086,0.411,0.128C458.833,302.651,377.861,368,272,368z"/>
<path d="M456.03,216c0-4.418-3.582-8-8-8h-0.01c-4.418,0-7.995,3.582-7.995,8s3.587,8,8.005,8S456.03,220.418,456.03,216z"/>
<path d="M456.03,240h-0.01c-4.418,0-7.995,3.582-7.995,8s3.587,8,8.005,8s8-3.582,8-8S460.448,240,456.03,240z"/>
</svg>